<svg width="14" height="14" viewBox="0 0 14 14" fill="none" xmlns="http://www.w3.org/2000/svg">
<path opacity="0.01" fill-rule="evenodd" clip-rule="evenodd" d="M0 0H14V14H0V0Z" fill="#141124"/>
<path fill-rule="evenodd" clip-rule="evenodd" d="M8.44064 9.64269C8.26979 9.47184 8.26979 9.19483 8.44064 9.02398L10.0271 7.4375H2.91667C2.67505 7.4375 2.47917 7.24162 2.47917 7C2.47917 6.75838 2.67505 6.5625 2.91667 6.5625H10.0271L8.44064 4.97603C8.26979 4.80517 8.26979 4.52816 8.44064 4.35731C8.6115 4.18645 8.8885 4.18645 9.05936 4.35731L11.3927 6.69064C11.5635 6.8615 11.5635 7.13851 11.3927 7.30936L9.05936 9.64269C8.8885 9.81355 8.6115 9.81355 8.44064 9.64269Z" fill="white"/>
</svg>
