<svg width="8" height="10" viewBox="0 0 8 10" fill="none" xmlns="http://www.w3.org/2000/svg">
<path d="M5.25 0.3125C5.25 0.895182 5.35742 1.43229 5.57227 1.92383C5.78711 2.41536 6.09635 2.86784 6.5 3.28125C6.90365 3.69466 7.21289 4.14714 7.42773 4.63867C7.64258 5.13021 7.75 5.66732 7.75 6.25C7.75 6.59505 7.70605 6.92708 7.61816 7.24609C7.53027 7.5651 7.40332 7.86296 7.2373 8.13965C7.07129 8.41634 6.87598 8.67025 6.65137 8.90137C6.42676 9.13249 6.17448 9.3278 5.89453 9.4873C5.61458 9.64681 5.3151 9.77214 4.99609 9.86328C4.67708 9.95443 4.34505 10 4 10C3.65495 10 3.32292 9.95605 3.00391 9.86816C2.6849 9.78027 2.38704 9.65332 2.11035 9.4873C1.83366 9.32129 1.57975 9.12598 1.34863 8.90137C1.11751 8.67676 0.922201 8.42448 0.762695 8.14453C0.60319 7.86458 0.477865 7.5651 0.386719 7.24609C0.295573 6.92708 0.25 6.59505 0.25 6.25C0.25 5.97656 0.279297 5.70801 0.337891 5.44434C0.396484 5.18066 0.48112 4.92839 0.591797 4.6875C0.702474 4.44661 0.839193 4.21712 1.00195 3.99902C1.16471 3.78092 1.34863 3.58398 1.55371 3.4082C1.5765 3.5319 1.60742 3.65885 1.64648 3.78906C1.68555 3.91927 1.73112 4.04948 1.7832 4.17969C1.83529 4.3099 1.89714 4.43359 1.96875 4.55078C2.04036 4.66797 2.11523 4.77702 2.19336 4.87793C2.25846 4.95931 2.3431 5 2.44727 5C2.53516 5 2.6084 4.96908 2.66699 4.90723C2.72559 4.84538 2.75651 4.77051 2.75977 4.68262C2.75977 4.64681 2.75488 4.61426 2.74512 4.58496C2.73535 4.55566 2.71908 4.52637 2.69629 4.49707C2.60514 4.36361 2.52539 4.23177 2.45703 4.10156C2.38867 3.97135 2.32845 3.83789 2.27637 3.70117C2.22428 3.56445 2.18685 3.42285 2.16406 3.27637C2.14128 3.12988 2.12826 2.97526 2.125 2.8125C2.125 2.42513 2.19824 2.06055 2.34473 1.71875C2.49121 1.37695 2.69303 1.0791 2.9502 0.825195C3.20736 0.571289 3.50521 0.371094 3.84375 0.224609C4.18229 0.078125 4.54688 0.00325521 4.9375 0H5.25V0.3125ZM4 9.375C4.43294 9.375 4.83822 9.29362 5.21582 9.13086C5.59342 8.9681 5.92546 8.74512 6.21191 8.46191C6.49837 8.17871 6.72135 7.84831 6.88086 7.4707C7.04036 7.0931 7.12174 6.6862 7.125 6.25C7.125 5.75846 7.03385 5.30111 6.85156 4.87793C6.66927 4.45475 6.4056 4.07064 6.06055 3.72559C5.63737 3.29915 5.30534 2.82878 5.06445 2.31445C4.82357 1.80013 4.68034 1.24349 4.63477 0.644531C4.36458 0.680339 4.11556 0.761719 3.8877 0.888672C3.65983 1.01562 3.45964 1.17676 3.28711 1.37207C3.11458 1.56738 2.98275 1.78711 2.8916 2.03125C2.80046 2.27539 2.75326 2.53581 2.75 2.8125C2.75 3.06641 2.78743 3.2959 2.8623 3.50098C2.93717 3.70605 3.04785 3.91113 3.19434 4.11621C3.25618 4.20085 3.30339 4.28874 3.33594 4.37988C3.36849 4.47103 3.38639 4.57194 3.38965 4.68262C3.38965 4.81283 3.36523 4.9349 3.31641 5.04883C3.26758 5.16276 3.19922 5.26204 3.11133 5.34668C3.02344 5.43131 2.92415 5.49967 2.81348 5.55176C2.7028 5.60384 2.58073 5.62826 2.44727 5.625C2.29753 5.625 2.16569 5.59733 2.05176 5.54199C1.93783 5.48665 1.83691 5.41178 1.74902 5.31738C1.66113 5.22298 1.58301 5.11719 1.51465 5C1.44629 4.88281 1.38118 4.76562 1.31934 4.64844C1.1696 4.88607 1.05892 5.1416 0.987305 5.41504C0.91569 5.68848 0.878255 5.9668 0.875 6.25C0.875 6.68294 0.95638 7.08822 1.11914 7.46582C1.2819 7.84342 1.50488 8.17546 1.78809 8.46191C2.07129 8.74837 2.40169 8.97135 2.7793 9.13086C3.1569 9.29036 3.5638 9.37175 4 9.375Z" fill="white"/>
</svg>
