<svg width="70" height="14" viewBox="0 0 32 6" fill="none" xmlns="http://www.w3.org/2000/svg">
<path d="M3 0L3.67354 2.07295H5.85317L4.08981 3.3541L4.76336 5.42705L3 4.1459L1.23664 5.42705L1.91019 3.3541L0.146831 2.07295H2.32646L3 0Z" fill="#FCBC69"/>
<path d="M9.5 0L10.1735 2.07295H12.3532L10.5898 3.3541L11.2634 5.42705L9.5 4.1459L7.73664 5.42705L8.41019 3.3541L6.64683 2.07295H8.82646L9.5 0Z" fill="#FCBC69"/>
<path d="M16 0L16.6735 2.07295H18.8532L17.0898 3.3541L17.7634 5.42705L16 4.1459L14.2366 5.42705L14.9102 3.3541L13.1468 2.07295H15.3265L16 0Z" fill="#FCBC69"/>
<path d="M22.5 0L23.1735 2.07295H25.3532L23.5898 3.3541L24.2634 5.42705L22.5 4.1459L20.7366 5.42705L21.4102 3.3541L19.6468 2.07295H21.8265L22.5 0Z" fill="#FCBC69"/>
<path d="M29 0L29.6735 2.07295H31.8532L30.0898 3.3541L30.7634 5.42705L29 4.1459L27.2366 5.42705L27.9102 3.3541L26.1468 2.07295H28.3265L29 0Z" fill="#CCC8C8"/>
</svg>
